<svg width="12" height="13" viewBox="0 0 12 13" fill="none" xmlns="http://www.w3.org/2000/svg">
<path d="M2.5 10.0001H3.2125L8.1 5.11256L7.3875 4.40006L2.5 9.28756V10.0001ZM2 11.0001C1.85833 11.0001 1.73958 10.9521 1.64375 10.8563C1.54792 10.7605 1.5 10.6417 1.5 10.5001V9.28756C1.5 9.15423 1.525 9.02714 1.575 8.90631C1.625 8.78548 1.69583 8.67923 1.7875 8.58756L8.1 2.28756C8.2 2.19589 8.31042 2.12506 8.43125 2.07506C8.55208 2.02506 8.67917 2.00006 8.8125 2.00006C8.94583 2.00006 9.075 2.02506 9.2 2.07506C9.325 2.12506 9.43333 2.20006 9.525 2.30006L10.2125 3.00006C10.3125 3.09173 10.3854 3.20006 10.4313 3.32506C10.4771 3.45006 10.5 3.57506 10.5 3.70006C10.5 3.83339 10.4771 3.96048 10.4313 4.08131C10.3854 4.20214 10.3125 4.31256 10.2125 4.41256L3.9125 10.7126C3.82083 10.8042 3.71458 10.8751 3.59375 10.9251C3.47292 10.9751 3.34583 11.0001 3.2125 11.0001H2ZM7.7375 4.76256L7.3875 4.40006L8.1 5.11256L7.7375 4.76256Z" fill="white"/>
</svg>
