<svg width="16" height="17" viewBox="0 0 16 17" fill="none" xmlns="http://www.w3.org/2000/svg">
<path d="M3.99984 15.1667C3.63317 15.1667 3.31928 15.0361 3.05817 14.775C2.79706 14.5139 2.6665 14.2 2.6665 13.8333V7.16666C2.6665 6.79999 2.79706 6.4861 3.05817 6.22499C3.31928 5.96388 3.63317 5.83332 3.99984 5.83332H4.6665V4.49999C4.6665 3.57777 4.9915 2.79166 5.6415 2.14166C6.2915 1.49166 7.07761 1.16666 7.99984 1.16666C8.92206 1.16666 9.70817 1.49166 10.3582 2.14166C11.0082 2.79166 11.3332 3.57777 11.3332 4.49999V5.83332H11.9998C12.3665 5.83332 12.6804 5.96388 12.9415 6.22499C13.2026 6.4861 13.3332 6.79999 13.3332 7.16666V13.8333C13.3332 14.2 13.2026 14.5139 12.9415 14.775C12.6804 15.0361 12.3665 15.1667 11.9998 15.1667H3.99984ZM3.99984 13.8333H11.9998V7.16666H3.99984V13.8333ZM7.99984 11.8333C8.3665 11.8333 8.68039 11.7028 8.9415 11.4417C9.20261 11.1805 9.33317 10.8667 9.33317 10.5C9.33317 10.1333 9.20261 9.81943 8.9415 9.55832C8.68039 9.29721 8.3665 9.16666 7.99984 9.16666C7.63317 9.16666 7.31928 9.29721 7.05817 9.55832C6.79706 9.81943 6.6665 10.1333 6.6665 10.5C6.6665 10.8667 6.79706 11.1805 7.05817 11.4417C7.31928 11.7028 7.63317 11.8333 7.99984 11.8333ZM5.99984 5.83332H9.99984V4.49999C9.99984 3.94443 9.80539 3.47221 9.4165 3.08332C9.02761 2.69443 8.55539 2.49999 7.99984 2.49999C7.44428 2.49999 6.97206 2.69443 6.58317 3.08332C6.19428 3.47221 5.99984 3.94443 5.99984 4.49999V5.83332Z" fill="white"/>
</svg>
