<svg width="16" height="17" viewBox="0 0 16 17" fill="none" xmlns="http://www.w3.org/2000/svg">
<path d="M8.00004 9.43331L9.93337 11.3666C10.0556 11.4889 10.2112 11.55 10.4 11.55C10.5889 11.55 10.7445 11.4889 10.8667 11.3666C10.9889 11.2444 11.05 11.0889 11.05 10.9C11.05 10.7111 10.9889 10.5555 10.8667 10.4333L8.93337 8.49998L10.8667 6.56665C10.9889 6.44442 11.05 6.28887 11.05 6.09998C11.05 5.91109 10.9889 5.75554 10.8667 5.63331C10.7445 5.51109 10.5889 5.44998 10.4 5.44998C10.2112 5.44998 10.0556 5.51109 9.93337 5.63331L8.00004 7.56665L6.06671 5.63331C5.94449 5.51109 5.78893 5.44998 5.60004 5.44998C5.41115 5.44998 5.2556 5.51109 5.13337 5.63331C5.01115 5.75554 4.95004 5.91109 4.95004 6.09998C4.95004 6.28887 5.01115 6.44442 5.13337 6.56665L7.06671 8.49998L5.13337 10.4333C5.01115 10.5555 4.95004 10.7111 4.95004 10.9C4.95004 11.0889 5.01115 11.2444 5.13337 11.3666C5.2556 11.4889 5.41115 11.55 5.60004 11.55C5.78893 11.55 5.94449 11.4889 6.06671 11.3666L8.00004 9.43331ZM8.00004 15.1666C7.07782 15.1666 6.21115 14.9916 5.40004 14.6416C4.58893 14.2916 3.88337 13.8166 3.28337 13.2166C2.68337 12.6166 2.20837 11.9111 1.85837 11.1C1.50837 10.2889 1.33337 9.4222 1.33337 8.49998C1.33337 7.57776 1.50837 6.71109 1.85837 5.89998C2.20837 5.08887 2.68337 4.38331 3.28337 3.78331C3.88337 3.18331 4.58893 2.70831 5.40004 2.35831C6.21115 2.00831 7.07782 1.83331 8.00004 1.83331C8.92226 1.83331 9.78893 2.00831 10.6 2.35831C11.4112 2.70831 12.1167 3.18331 12.7167 3.78331C13.3167 4.38331 13.7917 5.08887 14.1417 5.89998C14.4917 6.71109 14.6667 7.57776 14.6667 8.49998C14.6667 9.4222 14.4917 10.2889 14.1417 11.1C13.7917 11.9111 13.3167 12.6166 12.7167 13.2166C12.1167 13.8166 11.4112 14.2916 10.6 14.6416C9.78893 14.9916 8.92226 15.1666 8.00004 15.1666Z" fill="#E61E32"/>
</svg>
